{
	"asset":{
		"generator":"Khronos glTF Blender I/O v4.0.44",
		"version":"2.0"
	},
	"extensionsUsed":[
		"KHR_materials_specular",
		"KHR_materials_ior"
	],
	"scene":0,
	"scenes":[
		{
			"extras":{
				"snow":{
					"vertices":0,
					"height":1.0,
					"coverage":100
				},
				"texToolsSettings":{
					"bake_sampling":2,
					"bake_color_space":0
				},
				"TT_bake_mode":17
			},
			"name":"Scene",
			"nodes":[
				0,
				1
			]
		}
	],
	"nodes":[
		{
			"mesh":0,
			"name":"dish",
			"rotation":[
				0,
				-0.7071068286895752,
				-0.7071068286895752,
				0
			],
			"scale":[
				-0.5753304958343506,
				-0.046101685613393784,
				-0.9532238245010376
			],
			"translation":[
				0,
				-2.375141143798828,
				0
			]
		},
		{
			"mesh":1,
			"name":"ice",
			"rotation":[
				0.0018288218416273594,
				-0.9999983310699463,
				0,
				1.3768143569681257e-10
			],
			"scale":[
				-2.3358914852142334,
				-2.2916736602783203,
				-2.291673183441162
			],
			"translation":[
				-0.0032753311097621918,
				-1.4605422019958496,
				0.009869839064776897
			]
		}
	],
	"materials":[
		{
			"doubleSided":true,
			"name":"\u30de\u30c6\u30ea\u30a2\u30eb.007",
			"normalTexture":{
				"index":0
			},
			"pbrMetallicRoughness":{
				"baseColorFactor":[
					0.7221393585205078,
					1,
					0.9499706625938416,
					1
				],
				"metallicFactor":0,
				"roughnessFactor":0.31889933347702026
			}
		},
		{
			"alphaMode":"BLEND",
			"doubleSided":true,
			"extensions":{
				"KHR_materials_specular":{
					"specularFactor":0.4480000138282776
				},
				"KHR_materials_ior":{
					"ior":1.4500000476837158
				}
			},
			"name":"\u30de\u30c6\u30ea\u30a2\u30eb.002",
			"normalTexture":{
				"index":1
			},
			"pbrMetallicRoughness":{
				"baseColorFactor":[
					1,
					0.8514339327812195,
					0.48661142587661743,
					1
				],
				"metallicFactor":0,
				"roughnessFactor":0.5
			}
		}
	],
	"meshes":[
		{
			"name":"\u7acb\u65b9\u4f53.004",
			"primitives":[
				{
					"attributes":{
						"POSITION":0,
						"NORMAL":1,
						"TEXCOORD_0":2
					},
					"indices":3,
					"material":0
				}
			]
		},
		{
			"name":"\u7403.001",
			"primitives":[
				{
					"attributes":{
						"POSITION":4,
						"NORMAL":5,
						"TEXCOORD_0":6
					},
					"indices":7,
					"material":1
				}
			]
		}
	],
	"textures":[
		{
			"sampler":0,
			"source":0
		},
		{
			"sampler":1,
			"source":1
		}
	],
	"images":[
		{
			"mimeType":"image/png",
			"name":"dish_normal_tangent",
			"uri":"dish_normal_tangent.png"
		},
		{
			"mimeType":"image/png",
			"name":"ice_normal_tangent",
			"uri":"ice_normal_tangent.png"
		}
	],
	"accessors":[
		{
			"bufferView":0,
			"componentType":5126,
			"count":1764,
			"max":[
				4.539851188659668,
				56.65739059448242,
				1.6760212182998657
			],
			"min":[
				-4.539919853210449,
				-56.65536117553711,
				-0.6649333834648132
			],
			"type":"VEC3"
		},
		{
			"bufferView":1,
			"componentType":5126,
			"count":1764,
			"type":"VEC3"
		},
		{
			"bufferView":2,
			"componentType":5126,
			"count":1764,
			"type":"VEC2"
		},
		{
			"bufferView":3,
			"componentType":5123,
			"count":4704,
			"type":"SCALAR"
		},
		{
			"bufferView":4,
			"componentType":5126,
			"count":2031484,
			"max":[
				1.0307602882385254,
				0.9569788575172424,
				1.1087173223495483
			],
			"min":[
				-1.0702341794967651,
				-1.086368441581726,
				-1.106239676475525
			],
			"type":"VEC3"
		},
		{
			"bufferView":5,
			"componentType":5126,
			"count":2031484,
			"type":"VEC3"
		},
		{
			"bufferView":6,
			"componentType":5126,
			"count":2031484,
			"type":"VEC2"
		},
		{
			"bufferView":7,
			"componentType":5125,
			"count":3047424,
			"type":"SCALAR"
		}
	],
	"bufferViews":[
		{
			"buffer":0,
			"byteLength":21168,
			"byteOffset":0,
			"target":34962
		},
		{
			"buffer":0,
			"byteLength":21168,
			"byteOffset":21168,
			"target":34962
		},
		{
			"buffer":0,
			"byteLength":14112,
			"byteOffset":42336,
			"target":34962
		},
		{
			"buffer":0,
			"byteLength":9408,
			"byteOffset":56448,
			"target":34963
		},
		{
			"buffer":0,
			"byteLength":24377808,
			"byteOffset":65856,
			"target":34962
		},
		{
			"buffer":0,
			"byteLength":24377808,
			"byteOffset":24443664,
			"target":34962
		},
		{
			"buffer":0,
			"byteLength":16251872,
			"byteOffset":48821472,
			"target":34962
		},
		{
			"buffer":0,
			"byteLength":12189696,
			"byteOffset":65073344,
			"target":34963
		}
	],
	"samplers":[
		{
			"magFilter":9729,
			"minFilter":9987
		},
		{
			"magFilter":9729,
			"minFilter":9987,
			"wrapS":33071,
			"wrapT":33071
		}
	],
	"buffers":[
		{
			"byteLength":77263040,
			"uri":"plain.bin"
		}
	]
}
